<?xml version="1.0" encoding="utf-8"?>
<!-- Generator: Adobe Illustrator 24.3.0, SVG Export Plug-In . SVG Version: 6.00 Build 0)  -->
<svg version="1.1" id="Layer_1" xmlns="http://www.w3.org/2000/svg" xmlns:xlink="http://www.w3.org/1999/xlink" x="0px" y="0px"
	 viewBox="0 0 512 512" style="enable-background:new 0 0 512 512;" xml:space="preserve">
<g>
	<path d="M102.4,512h307.2h25.6c28.25,0,51.2-22.92,51.2-51.2V51.2c0-28.25-22.95-51.2-51.2-51.2h-25.6H102.4H76.8
		C48.53,0,25.6,22.95,25.6,51.2v409.6c0,28.28,22.93,51.2,51.2,51.2H102.4z M256,76.78c42.15,0,76.8,34.57,76.8,76.8
		c0,42.2-34.65,76.82-76.8,76.82c-42.18,0-76.8-34.62-76.8-76.82C179.2,111.35,213.82,76.78,256,76.78z M102.4,390.4
		c0-56.8,69.22-115.2,153.6-115.2c84.35,0,153.6,58.4,153.6,115.2v19.2H102.4V390.4z"/>
</g>
</svg>
